A man lives alone in a remote cabin and is surprised by his visitors.

IMDB: 
http://www.imdb.com/title/tt1684564/

PLOT INFO:
A man lives alone in a remote cabin and is surprised by his visitors.

Media Info:
General
Complete name : The.Victim.2011.DVDSCR.AC3-2.0.XviD-AXED.avi
Format : AVI
Format/Info : Audio Video Interleave
File size : 1.37 GiB
Duration : 1h 23mn
Overall bit rate : 2 359 Kbps

Video
ID : 0
Format : MPEG-4 Visual
Format profile : Advanced Simple@L5
Format settings, BVOP : 1
Format settings, QPel : No
Format settings, GMC : No warppoints
Format settings, Matrix : Default (H.263)
Codec ID : XVID
Codec ID/Hint : XviD
Duration : 1h 23mn
Bit rate : 2 159 Kbps
Width : 720 pixels
Height : 400 pixels
Display aspect ratio : 16:9
Frame rate : 23.976 fps
Color space : YUV
Chroma subsampling : 4:2:0
Bit depth : 8 bits
Scan type : Progressive
Compression mode : Lossy
Bits/(Pixel*Frame) : 0.313
Stream size : 1.26 GiB (92%)
Writing library : XviD 1.2.1 (UTC 2008-12-04)

Audio
ID : 1
Format : AC-3
Format/Info : Audio Coding 3
Mode extension : CM (complete main)
Codec ID : 2000
Duration : 1h 23mn
Bit rate mode : Constant
Bit rate : 192 Kbps
Channel(s) : 2 channels
Channel positions : Front: L R
Sampling rate : 48.0 KHz
Bit depth : 16 bits
Compression mode : Lossy
Stream size : 114 MiB (8%)
Alignment : Aligned on interleaves
Interleave, duration : 64 ms (1.53 video frames)
Interleave, preload duration : 192 ms
Title : VTS_01_1 T80 2_0ch 192Kbps DELAY 0ms


SOURCE:
DVD Screener Disc.

NOTES:
Enjoy this sexy little romp in the woods a little early. Titties and gore, from what I'm told. And Michael Biehn with his sexy wife. Oh... And Danielle Harris. The watermark, as you can see, lasts throughout the movie. It's not an identifying marker, so it hasn't been blurred. If you prefer it blurred, do so yourself.

AXED! We do this better.

 
http://rapidimg.org/images/qzb0p.png 
http://rapidimg.org/images/4YX3.png